<svg width="12" height="12" viewBox="0 0 12 12" fill="none" xmlns="http://www.w3.org/2000/svg">
<path d="M6.25781 1.125L6.14062 1.23047L3.59766 3.75H1.875V9.75H8.19141C8.72021 9.75 9.18164 9.37646 9.29297 8.85938L10.1016 5.10938C10.2495 4.4165 9.70752 3.75 9 3.75H6.84375L6.91406 3.46875C6.99023 3.41016 7.03857 3.38525 7.14844 3.23438C7.32422 2.99414 7.5 2.62207 7.5 2.12109C7.5 1.58643 7.0166 1.125 6.41016 1.125H6.25781ZM6.52734 1.91016C6.68555 1.94092 6.75 2.00537 6.75 2.12109C6.75 2.45947 6.64746 2.66895 6.55078 2.80078C6.4541 2.93262 6.38672 2.96484 6.38672 2.96484L6.25781 3.03516L6.21094 3.1875L5.98828 4.03125L5.87109 4.5H9C9.24756 4.5 9.41455 4.71533 9.36328 4.95703L8.56641 8.70703C8.52832 8.88281 8.37012 9 8.19141 9H4.125V4.27734L6.52734 1.91016ZM2.625 4.5H3.375V9H2.625V4.5Z" fill="#737373"/>
</svg>
