<svg width="24" height="24" viewBox="0 0 24 24" fill="none" xmlns="http://www.w3.org/2000/svg">
<path d="M16.7803 4.75049C17.8944 4.75049 18.966 5.16462 19.7891 5.90771L19.9512 6.06104C20.7845 6.90506 21.2519 8.04372 21.252 9.22998C21.252 10.4169 20.7835 11.5557 19.9492 12.3999L12.1826 20.1772C12.1593 20.2004 12.131 20.2195 12.1006 20.2319C12.0703 20.2443 12.0376 20.2507 12.0049 20.2505V20.2495L11.9961 20.2505C11.9634 20.2507 11.9307 20.2443 11.9004 20.2319C11.8699 20.2195 11.8417 20.2004 11.8184 20.1772L4.05078 12.3999C3.21673 11.5558 2.74902 10.4168 2.74902 9.22998C2.74903 8.04366 3.21635 6.90507 4.0498 6.06104C4.89148 5.22174 6.03208 4.75049 7.2207 4.75049C8.40915 4.75058 9.54905 5.22189 10.3906 6.06104L12 7.67041L12.5303 7.14014L13.6094 6.06006L13.6104 6.06104C14.452 5.22191 15.5918 4.75051 16.7803 4.75049Z" stroke="#999999" stroke-width="1.5"/>
</svg>
