<svg width="16" height="16" viewBox="0 0 16 16" fill="none" xmlns="http://www.w3.org/2000/svg">
<path d="M8.0001 9.59961L7.50796 10.1656C7.79017 10.411 8.21003 10.411 8.49223 10.1656L8.0001 9.59961ZM4.60498 10.2493C5.00344 10.1362 5.23472 9.72141 5.12157 9.32295C5.00841 8.92449 4.59367 8.69321 4.19521 8.80637L4.60498 10.2493ZM11.805 8.80637C11.4065 8.69321 10.9918 8.92449 10.8786 9.32295C10.7655 9.72141 10.9968 10.1362 11.3952 10.2493L11.805 8.80637ZM11.2001 4.73004H10.4501C10.4501 5.07325 10.3136 5.50974 10.0405 6.01439C9.77282 6.50899 9.40647 7.00992 9.02479 7.46627C8.6452 7.92013 8.26344 8.31453 7.97563 8.59609C7.83218 8.73642 7.71319 8.84763 7.63096 8.92296C7.58987 8.9606 7.55804 8.98922 7.53701 9.00797C7.52649 9.01734 7.51869 9.02423 7.51378 9.02855C7.51133 9.03071 7.5096 9.03222 7.50862 9.03308C7.50813 9.03351 7.50783 9.03377 7.50772 9.03387C7.50767 9.03392 7.50766 9.03392 7.5077 9.03389C7.50772 9.03387 7.50778 9.03381 7.50779 9.0338C7.50787 9.03373 7.50796 9.03366 8.0001 9.59961C8.49223 10.1656 8.49235 10.1655 8.49247 10.1654C8.49253 10.1653 8.49267 10.1652 8.49279 10.1651C8.49302 10.1649 8.49331 10.1646 8.49364 10.1643C8.49431 10.1638 8.49516 10.163 8.49621 10.1621C8.49831 10.1603 8.50117 10.1577 8.50478 10.1546C8.51198 10.1482 8.52214 10.1393 8.53506 10.1277C8.56091 10.1047 8.59782 10.0715 8.64424 10.029C8.73701 9.94398 8.86802 9.82149 9.02457 9.66834C9.33675 9.36295 9.755 8.93126 10.1754 8.4286C10.5937 7.92843 11.0274 7.3424 11.3597 6.72831C11.6866 6.12426 11.9501 5.43031 11.9501 4.73004H11.2001ZM8.0001 9.59961C8.49223 9.03366 8.49232 9.03373 8.4924 9.0338C8.49241 9.03381 8.49248 9.03387 8.4925 9.03389C8.49254 9.03392 8.49253 9.03392 8.49248 9.03387C8.49236 9.03377 8.49206 9.03351 8.49157 9.03308C8.4906 9.03222 8.48887 9.03071 8.48642 9.02855C8.48151 9.02423 8.4737 9.01734 8.46319 9.00797C8.44216 8.98922 8.41032 8.9606 8.36924 8.92296C8.28701 8.84763 8.16802 8.73642 8.02457 8.59609C7.73675 8.31453 7.355 7.92013 6.97541 7.46627C6.59373 7.00992 6.22737 6.50899 5.9597 6.01439C5.6866 5.50974 5.5501 5.07325 5.5501 4.73004H4.8001H4.0501C4.0501 5.43031 4.3136 6.12426 4.64049 6.72831C4.97282 7.3424 5.40647 7.92843 5.82479 8.4286C6.2452 8.93126 6.66344 9.36295 6.97563 9.66834C7.13218 9.82149 7.26319 9.94398 7.35596 10.029C7.40237 10.0715 7.43929 10.1047 7.46513 10.1277C7.47806 10.1393 7.48822 10.1482 7.49542 10.1546C7.49902 10.1577 7.50188 10.1603 7.50398 10.1621C7.50503 10.163 7.50589 10.1638 7.50656 10.1643C7.50689 10.1646 7.50717 10.1649 7.50741 10.1651C7.50752 10.1652 7.50766 10.1653 7.50772 10.1654C7.50785 10.1655 7.50796 10.1656 8.0001 9.59961ZM4.8001 4.73004H5.5501C5.5501 3.43082 6.63138 2.34961 8.0001 2.34961V1.59961V0.849609C5.8342 0.849609 4.0501 2.57148 4.0501 4.73004H4.8001ZM8.0001 1.59961V2.34961C9.36882 2.34961 10.4501 3.43082 10.4501 4.73004H11.2001H11.9501C11.9501 2.57148 10.166 0.849609 8.0001 0.849609V1.59961ZM14.4001 11.7329H13.6501C13.6501 11.8399 13.6013 12.0096 13.3708 12.2366C13.1377 12.4663 12.762 12.7076 12.2371 12.9263C11.1907 13.3623 9.69314 13.6496 8.0001 13.6496V14.3996V15.1496C9.84168 15.1496 11.5441 14.84 12.814 14.3109C13.4474 14.047 14.0089 13.7137 14.4235 13.3052C14.8408 12.8942 15.1501 12.3624 15.1501 11.7329H14.4001ZM8.0001 14.3996V13.6496C6.30706 13.6496 4.80948 13.3623 3.76308 12.9263C3.23823 12.7076 2.86247 12.4663 2.62938 12.2366C2.39893 12.0096 2.3501 11.8399 2.3501 11.7329H1.6001H0.850098C0.850098 12.3624 1.15944 12.8942 1.5767 13.3052C1.99133 13.7137 2.55282 14.047 3.18615 14.3109C4.45609 14.84 6.15851 15.1496 8.0001 15.1496V14.3996ZM1.6001 11.7329H2.3501C2.3501 11.602 2.4287 11.3655 2.82413 11.0607C3.21205 10.7617 3.81469 10.4737 4.60498 10.2493L4.4001 9.52784L4.19521 8.80637C3.29529 9.06193 2.49792 9.41825 1.9084 9.87266C1.32639 10.3213 0.850098 10.9473 0.850098 11.7329H1.6001ZM11.6001 9.52784L11.3952 10.2493C12.1855 10.4737 12.7881 10.7617 13.1761 11.0607C13.5715 11.3655 13.6501 11.602 13.6501 11.7329H14.4001H15.1501C15.1501 10.9473 14.6738 10.3213 14.0918 9.87266C13.5023 9.41825 12.7049 9.06193 11.805 8.80637L11.6001 9.52784Z" fill="#C2C2C2"/>
</svg>
