<svg width="16" height="16" viewBox="0 0 16 16" fill="none" xmlns="http://www.w3.org/2000/svg">
<path d="M12.7996 9.12381C13.6445 9.75507 14.3996 11.3445 14.3996 12.3238C14.3996 12.6289 14.177 12.8762 13.9024 12.8762H13.5996M10.3996 6.53632C10.9462 6.22015 11.3139 5.62921 11.3139 4.95238C11.3139 4.27555 10.9462 3.68461 10.3996 3.36844M2.09679 12.8762H10.8548C11.1294 12.8762 11.352 12.6289 11.352 12.3238C11.352 10.406 9.74981 8.8514 6.4758 8.8514C3.20179 8.8514 1.59961 10.406 1.59961 12.3238C1.59961 12.6289 1.8222 12.8762 2.09679 12.8762ZM8.30437 4.95238C8.30437 5.96227 7.48569 6.78095 6.4758 6.78095C5.46591 6.78095 4.64723 5.96227 4.64723 4.95238C4.64723 3.94249 5.46591 3.12381 6.4758 3.12381C7.48569 3.12381 8.30437 3.94249 8.30437 4.95238Z" stroke="#D6D6D6" stroke-width="1.5" stroke-linecap="round"/>
</svg>
