<svg width="9" height="10" viewBox="0 0 9 10" fill="none" xmlns="http://www.w3.org/2000/svg">
<path d="M5.50061 0.5C3.57184 0.5 2.00122 2.07063 2.00122 3.99939C2.00122 4.83733 2.29511 5.60556 2.78858 6.20838L0 8.99696L0.503038 9.5L3.29162 6.71142C3.89444 7.20489 4.66267 7.49879 5.50061 7.49879C7.42937 7.49879 9 5.92816 9 3.99939C9 2.07063 7.42937 0.5 5.50061 0.5ZM5.50061 1.19988C7.05073 1.19988 8.30012 2.44927 8.30012 3.99939C8.30012 5.54951 7.05073 6.79891 5.50061 6.79891C3.95049 6.79891 2.70109 5.54951 2.70109 3.99939C2.70109 2.44927 3.95049 1.19988 5.50061 1.19988Z" fill="black"/>
</svg>
