<svg width="16" height="16" viewBox="0 0 16 16" fill="none" xmlns="http://www.w3.org/2000/svg">
<path d="M10.1624 10.3115C10.5554 10.4425 10.9801 10.2301 11.1111 9.83717C11.2421 9.44421 11.0297 9.01947 10.6368 8.88848L10.1624 10.3115ZM7.99961 8.8H7.24961C7.24961 9.12282 7.45618 9.40942 7.76244 9.51151L7.99961 8.8ZM8.74961 5.45484C8.74961 5.04062 8.41382 4.70484 7.99961 4.70484C7.58539 4.70484 7.24961 5.04062 7.24961 5.45484H8.74961ZM10.3996 9.6L10.6368 8.88848L8.23678 8.08848L7.99961 8.8L7.76244 9.51151L10.1624 10.3115L10.3996 9.6ZM7.99961 8.8H8.74961V5.45484H7.99961H7.24961V8.8H7.99961ZM14.3996 8H13.6496C13.6496 11.1204 11.12 13.65 7.99961 13.65V14.4V15.15C11.9484 15.15 15.1496 11.9488 15.1496 8H14.3996ZM7.99961 14.4V13.65C4.8792 13.65 2.34961 11.1204 2.34961 8H1.59961H0.849609C0.849609 11.9488 4.05077 15.15 7.99961 15.15V14.4ZM1.59961 8H2.34961C2.34961 4.87959 4.8792 2.35 7.99961 2.35V1.6V0.849998C4.05077 0.849998 0.849609 4.05116 0.849609 8H1.59961ZM7.99961 1.6V2.35C11.12 2.35 13.6496 4.87959 13.6496 8H14.3996H15.1496C15.1496 4.05116 11.9484 0.849998 7.99961 0.849998V1.6Z" fill="#D6D6D6"/>
</svg>
