<svg width="16" height="16" viewBox="0 0 16 16" fill="none" xmlns="http://www.w3.org/2000/svg">
<path d="M11.3167 5.96667C11.4824 5.74575 11.4376 5.43235 11.2167 5.26667C10.9958 5.10098 10.6824 5.14575 10.5167 5.36667L11.3167 5.96667ZM7.41667 10.3333L7.02623 10.6457C7.12283 10.7664 7.26986 10.8357 7.42448 10.8333C7.57909 10.8309 7.72389 10.757 7.81667 10.6333L7.41667 10.3333ZM5.47377 7.10432C5.30126 6.88869 4.98662 6.85373 4.77099 7.02623C4.55535 7.19874 4.52039 7.51338 4.6929 7.72901L5.47377 7.10432ZM15 8H14.5C14.5 11.5899 11.5899 14.5 8 14.5V15V15.5C12.1421 15.5 15.5 12.1421 15.5 8H15ZM8 15V14.5C4.41015 14.5 1.5 11.5899 1.5 8H1H0.5C0.5 12.1421 3.85786 15.5 8 15.5V15ZM1 8H1.5C1.5 4.41015 4.41015 1.5 8 1.5V1V0.5C3.85786 0.5 0.5 3.85786 0.5 8H1ZM8 1V1.5C11.5899 1.5 14.5 4.41015 14.5 8H15H15.5C15.5 3.85786 12.1421 0.5 8 0.5V1ZM10.9167 5.66667L10.5167 5.36667L7.01667 10.0333L7.41667 10.3333L7.81667 10.6333L11.3167 5.96667L10.9167 5.66667ZM5.08333 7.41667L4.6929 7.72901L7.02623 10.6457L7.41667 10.3333L7.8071 10.021L5.47377 7.10432L5.08333 7.41667Z" fill="#999999"/>
</svg>
