<svg width="53" height="18" viewBox="0 0 53 18" fill="none" xmlns="http://www.w3.org/2000/svg">
<rect x="0.5" y="0.5" width="52" height="17" rx="8.5" stroke="#E83E3B"/>
<path d="M15.6796 8.36V10.14H10.0296V8.36H15.6796ZM11.7996 9.25L11.3396 12.04L10.3596 10.96H16.0496V13H8.78965L9.33965 9.25L8.78965 5.5H15.9996V7.54H10.3596L11.3396 6.46L11.7996 9.25ZM19.6849 5.5V11.86L18.5249 10.7H24.1049V13H17.1049V5.5H19.6849ZM24.9174 5.5H27.4974V13H24.9174V5.5ZM31.0067 6.61H33.5867V13H31.0067V6.61ZM28.3067 5.5H36.2867V7.8H28.3067V5.5ZM43.7851 8.36V10.14H38.1351V8.36H43.7851ZM39.9051 9.25L39.4451 12.04L38.4651 10.96H44.1551V13H36.8951L37.4451 9.25L36.8951 5.5H44.1051V7.54H38.4651L39.4451 6.46L39.9051 9.25Z" fill="#E83E3B"/>
</svg>
