<svg width="24" height="24" viewBox="0 0 24 24" fill="none" xmlns="http://www.w3.org/2000/svg">
<path d="M3 5.85714C3 5.38376 3.38376 5 3.85714 5H20.1429C20.6162 5 21 5.38376 21 5.85714V6.14286C21 6.61624 20.6162 7 20.1429 7H3.85714C3.38376 7 3 6.61624 3 6.14286V5.85714Z" fill="white"/>
<path d="M3 11.8571C3 11.3838 3.38376 11 3.85714 11H20.1429C20.6162 11 21 11.3838 21 11.8571V12.1429C21 12.6162 20.6162 13 20.1429 13H3.85714C3.38376 13 3 12.6162 3 12.1429V11.8571Z" fill="white"/>
<path d="M3 17.8571C3 17.3838 3.38376 17 3.85714 17H20.1429C20.6162 17 21 17.3838 21 17.8571V18.1429C21 18.6162 20.6162 19 20.1429 19H3.85714C3.38376 19 3 18.6162 3 18.1429V17.8571Z" fill="white"/>
</svg>
