<svg width="80" height="42" viewBox="0 0 80 42" fill="none" xmlns="http://www.w3.org/2000/svg">
<path d="M35.031 0L30.3043 26.6667H23.786L26.6449 10.6743L17.8014 26.6667H12.541L9.33907 10.5983L6.51829 26.6667H0L4.72671 0H12.4267L16.696 18.4615L27.3692 0H35.031Z" fill="white"/>
<path d="M46.2367 0L41.51 26.6667H34.9917L39.7184 0H46.2367Z" fill="white"/>
<path d="M70.2104 0L69.3336 5.1282H62.2054L58.3936 26.6667H51.8753L55.6872 5.1282H48.5971L49.5119 0H70.2104Z" fill="white"/>
<path d="M80 0L75.2733 26.6667H68.755L73.4817 0H80Z" fill="white"/>
<path d="M7.27273 34.7266V41.9993H6.14009V37.0183L4.03378 41.9993H3.24888L1.13264 37.0183V41.9993H0V34.7266H1.22206L3.6463 40.4296L6.06061 34.7266H7.27273Z" fill="white"/>
<path d="M13.5065 40.5155H10.4831L9.96366 41.9993H8.72729L11.3143 34.7266H12.6857L15.2727 41.9993H14.026L13.5065 40.5155ZM13.174 39.5437L12 36.1686L10.8156 39.5437H13.174Z" fill="white"/>
<path d="M20.9159 41.9993L17.974 38.7449V41.9993H16.7273V34.7266H17.974V38.0438L20.9269 34.7266H22.4908L19.188 38.3682L22.5455 41.9993H20.9159Z" fill="white"/>
<path d="M25.0795 35.6983V37.83H27.3523V38.8018H25.0795V41.0275H27.6364V41.9993H24V34.7266H27.6364V35.6983H25.0795Z" fill="white"/>
<path d="M32.9202 34.7266V41.9993H31.7656V34.7266H32.9202Z" fill="white"/>
<path d="M39.2868 34.7266V35.6997H37.4131V41.9993H36.2585V35.6997H34.3748V34.7266H39.2868Z" fill="white"/>
<path d="M48.3282 34.7266V35.6997H46.4545V41.9993H45.2999V35.6997H43.4161V34.7266H48.3282Z" fill="white"/>
<path d="M54.4415 40.5155H51.4943L50.9879 41.9993H49.7827L52.3046 34.7266H53.6414L56.1633 41.9993H54.9479L54.4415 40.5155ZM54.1175 39.5437L52.973 36.1686L51.8184 39.5437H54.1175Z" fill="white"/>
<path d="M61.4968 41.9993L58.7724 38.7449V41.9993H57.6178V34.7266H58.7724V38.0438L61.5069 34.7266H62.9552L59.8966 38.3682L63.0058 41.9993H61.4968Z" fill="white"/>
<path d="M65.615 35.6983V37.83H68.0457V38.8018H65.615V41.0275H68.3496V41.9993H64.4604V34.7266H68.3496V35.6983H65.615Z" fill="white"/>
<path d="M73.6335 34.7266V41.9993H72.4789V34.7266H73.6335Z" fill="white"/>
<path d="M80 34.7266V35.6997H78.1264V41.9993H76.9718V35.6997H75.088V34.7266H80Z" fill="white"/>
</svg>
