<svg width="25" height="24" viewBox="0 0 25 24" fill="none" xmlns="http://www.w3.org/2000/svg">
<g id="TailingIcon">
<path id="Vector" d="M12.505 6.5C15.265 6.5 17.505 8.74 17.505 11.5C17.505 12.15 17.375 12.76 17.145 13.33L20.065 16.25C21.575 14.99 22.765 13.36 23.495 11.5C21.765 7.11 17.495 4 12.495 4C11.095 4 9.755 4.25 8.51501 4.7L10.675 6.86C11.245 6.63 11.855 6.5 12.505 6.5ZM2.505 3.77L5.245 6.51C3.585 7.8 2.285 9.52 1.505 11.5C3.235 15.89 7.505 19 12.505 19C14.055 19 15.535 18.7 16.885 18.16L17.305 18.58L20.235 21.5L21.505 20.23L3.775 2.5L2.505 3.77ZM8.03501 9.3L9.585 10.85C9.535 11.06 9.505 11.28 9.505 11.5C9.505 13.16 10.845 14.5 12.505 14.5C12.725 14.5 12.945 14.47 13.155 14.42L14.705 15.97C14.035 16.3 13.295 16.5 12.505 16.5C9.745 16.5 7.505 14.26 7.505 11.5C7.505 10.71 7.70501 9.97 8.03501 9.3ZM12.345 8.52L15.495 11.67L15.515 11.51C15.515 9.85 14.175 8.51 12.515 8.51L12.345 8.52Z" fill="#737373"/>
</g>
</svg>
