<svg width="21" height="21" viewBox="0 0 21 21" fill="none" xmlns="http://www.w3.org/2000/svg">
<path fill-rule="evenodd" clip-rule="evenodd" d="M12.5869 2.28016C12.9844 2.51206 13.1187 3.02232 12.8868 3.41987L7.78452 12.1666H11.3337C11.7939 12.1666 12.167 12.5397 12.167 13C12.167 13.4602 11.7939 13.8333 11.3337 13.8333H3.00033C2.54009 13.8333 2.16699 13.4602 2.16699 13C2.16699 12.5397 2.54009 12.1666 3.00033 12.1666H5.85502L9.21361 6.40906L7.30068 3.45268C7.05066 3.06627 7.16122 2.55035 7.54762 2.30033C7.93402 2.05031 8.44995 2.16086 8.69997 2.54727L10.1548 4.79563L11.4472 2.58008C11.6791 2.18254 12.1893 2.04826 12.5869 2.28016ZM11.3221 8.13366C11.7085 7.88364 12.2244 7.99419 12.4745 8.3806L14.9243 12.1666H18.0003C18.4606 12.1666 18.8337 12.5397 18.8337 13C18.8337 13.4602 18.4606 13.8333 18.0003 13.8333H16.0027L17.8666 16.7139C18.1167 17.1003 18.0061 17.6163 17.6197 17.8663C17.2333 18.1163 16.7174 18.0057 16.4674 17.6193L11.0752 9.28602C10.8252 8.89961 10.9357 8.38369 11.3221 8.13366ZM5.09573 15.0631C5.49038 15.2999 5.61836 15.8118 5.38157 16.2065L4.54824 17.5954C4.31145 17.99 3.79957 18.118 3.40492 17.8812C3.01027 17.6444 2.88229 17.1326 3.11908 16.7379L3.95241 15.349C4.1892 14.9543 4.70108 14.8264 5.09573 15.0631Z" fill="#999999"/>
</svg>
