<svg width="21" height="21" viewBox="0 0 21 21" fill="none" xmlns="http://www.w3.org/2000/svg">
<path d="M5.37233 2.37499C5.32473 2.36998 5.28214 2.39253 5.23204 2.39503C5.18945 2.39754 5.15438 2.38752 5.11179 2.39503C5.10427 2.39503 5.09926 2.39503 5.09175 2.39503C5.07171 2.39503 5.05166 2.39503 5.03162 2.39503C4.96148 2.41006 4.89384 2.43762 4.83121 2.4752C4.76357 2.51027 4.70094 2.55787 4.65083 2.61549C4.40031 2.82593 4.25 3.1516 4.25 3.45724V18.0676C4.25 18.3832 4.39029 18.764 4.731 18.9494C4.75605 18.9619 4.78611 18.9594 4.81116 18.9694C4.83121 18.977 4.85125 18.9845 4.87129 18.9895C5.17692 19.0922 5.49508 19.0321 5.73308 18.8893C5.74059 18.8893 5.7456 18.8893 5.75312 18.8893C6.02869 18.7214 11.7856 15.2016 11.7856 15.2016L14.852 13.3578C14.852 13.3578 17.4524 11.7845 17.7981 11.5741C18.0912 11.3962 18.3643 11.058 18.3593 10.6522C18.3543 10.2463 18.0737 9.94571 17.7981 9.79038C17.7104 9.74028 16.9388 9.27682 16.2349 8.84843C15.561 8.43758 14.9698 8.08184 14.9121 8.04676C14.8921 8.03173 14.872 8.01921 14.852 8.00668L11.7856 6.14281C11.7856 6.14281 6.20656 2.75829 5.87337 2.55537C5.72556 2.46768 5.5502 2.39503 5.37233 2.37499ZM5.53266 4.35911L11.5852 10.6722L5.53266 16.9853V4.35911ZM8.61907 5.72194C9.75142 6.40836 11.1243 7.2451 11.1243 7.2451L13.4892 8.6881L12.4671 9.7503L8.61907 5.72194ZM14.6115 9.36951C14.857 9.51982 15.0825 9.6526 15.5735 9.95072C16.1096 10.2764 16.4829 10.4843 16.796 10.6722C16.2073 11.028 15.09 11.7169 14.6315 11.995L13.3689 10.6722L14.6115 9.36951ZM12.4671 11.6142L13.4892 12.6764L11.1243 14.1194C11.1243 14.1194 9.71885 14.9636 8.59903 15.6425L12.4671 11.6142Z" fill="#999999"/>
</svg>
