<svg width="61" height="30" viewBox="0 0 61 30" fill="none" xmlns="http://www.w3.org/2000/svg">
<path d="M27.1896 0.5L23.6884 20.5313H18.86L20.9777 8.51824L14.427 20.5313H10.5304L8.15857 8.46117L6.0691 20.5313H1.24074L4.74201 0.5H10.4457L13.6081 14.3679L21.5142 0.5H27.1896Z" fill="white"/>
<path d="M35.4902 0.5L31.9889 20.5313H27.1605L30.6618 0.5H35.4902Z" fill="white"/>
<path d="M53.2484 0.5L52.599 4.35218H47.3188L44.4952 20.5313H39.6669L42.4905 4.35218H37.2386L37.9163 0.5H53.2484Z" fill="white"/>
<path d="M60.5 0.5L56.9987 20.5313H52.1704L55.6716 0.5H60.5Z" fill="white"/>
<path d="M5.88721 24.0368V29.4999H5.04821V25.7583L3.48799 29.4999H2.90658L1.33899 25.7583V29.4999H0.5V24.0368H1.40523L3.20096 28.3208L4.98934 24.0368H5.88721Z" fill="#1ADCDF"/>
<path d="M10.5048 28.3854H8.26528L7.88048 29.5H6.96465L8.88096 24.0369H9.89683L11.8131 29.5H10.8896L10.5048 28.3854ZM10.2585 27.6554L9.3889 25.1201L8.51155 27.6554H10.2585Z" fill="#1ADCDF"/>
<path d="M15.9933 29.5L13.8141 27.0553V29.5H12.8906V24.0369H13.8141V26.5287L16.0014 24.0369H17.1598L14.7133 26.7723L17.2003 29.5H15.9933Z" fill="#1ADCDF"/>
<path d="M19.0774 24.7668V26.3681H20.761V27.0981H19.0774V28.77H20.9714V29.5H18.2778V24.0369H20.9714V24.7668H19.0774Z" fill="#1ADCDF"/>
<path d="M24.8854 24.0369V29.5H24.0301V24.0369H24.8854Z" fill="#1ADCDF"/>
<path d="M29.6013 24.0369V24.7679H28.2134V29.5H27.3582V24.7679H25.9628V24.0369H29.6013Z" fill="#1ADCDF"/>
<path d="M36.2987 24.0369V24.7679H34.9108V29.5H34.0555V24.7679H32.6601V24.0369H36.2987Z" fill="#1ADCDF"/>
<path d="M40.8271 28.3854H38.644L38.2689 29.5H37.3761L39.2441 24.0369H40.2344L42.1025 29.5H41.2022L40.8271 28.3854ZM40.587 27.6554L39.7393 25.1201L38.884 27.6554H40.587Z" fill="#1ADCDF"/>
<path d="M46.0532 29.5L44.0351 27.0554V29.5H43.1799V24.0369H44.0351V26.5287L46.0607 24.0369H47.1335L44.8679 26.7724L47.171 29.5H46.0532Z" fill="#1ADCDF"/>
<path d="M49.1037 24.7669V26.3681H50.9042V27.0981H49.1037V28.77H51.1293V29.5H48.2485V24.0369H51.1293V24.7669H49.1037Z" fill="#1ADCDF"/>
<path d="M55.0433 24.0369V29.5H54.1881V24.0369H55.0433Z" fill="#1ADCDF"/>
<path d="M59.7593 24.0369V24.7679H58.3714V29.5H57.5161V24.7679H56.1207V24.0369H59.7593Z" fill="#1ADCDF"/>
</svg>
