<svg width="80" height="38" viewBox="0 0 80 38" fill="none" xmlns="http://www.w3.org/2000/svg">
<path d="M35.5862 0L30.9178 26.248H24.48L27.3036 10.5067L18.5693 26.248H13.3739L10.2114 10.4319L7.42547 26.248H0.987654L5.65601 0H13.2609L17.4775 18.1717L28.0189 0H35.5862Z" fill="white"/>
<path d="M46.6535 0L41.9852 26.248H35.5474L40.2157 0H46.6535Z" fill="white"/>
<path d="M70.3312 0L69.4653 5.04768H62.4251L58.6603 26.248H52.2225L55.9873 5.04768H48.9848L49.8883 0H70.3312Z" fill="white"/>
<path d="M80 0L75.3316 26.248H68.8938L73.5622 0H80Z" fill="white"/>
<path d="M7.18294 30.8414V37.9999H6.06429V33.0971L3.98398 37.9999H3.20877L1.11865 33.0971V37.9999H0V30.8414H1.20697L3.60128 36.4549L5.98578 30.8414H7.18294Z" fill="#1ADCDF"/>
<path d="M13.3398 36.5394H10.3537L9.84064 37.9999H8.61954L11.1746 30.8414H12.5291L15.0842 37.9999H13.8528L13.3398 36.5394ZM13.0114 35.5829L11.8519 32.2608L10.6821 35.5829H13.0114Z" fill="#1ADCDF"/>
<path d="M20.6577 37.9999L17.7521 34.7966V37.9999H16.5208V30.8414H17.7521V34.1065L20.6685 30.8414H22.2131L18.9511 34.4258L22.2671 37.9999H20.6577Z" fill="#1ADCDF"/>
<path d="M24.7699 31.7979V33.8961H27.0146V34.8527H24.7699V37.0434H27.2952V37.9999H23.7037V30.8414H27.2952V31.7979H24.7699Z" fill="#1ADCDF"/>
<path d="M32.5138 30.8414V37.9999H31.3735V30.8414H32.5138Z" fill="#1ADCDF"/>
<path d="M38.8018 30.8415V31.7994H36.9513V38H35.8109V31.7994H33.9504V30.8415H38.8018Z" fill="#1ADCDF"/>
<path d="M47.7315 30.8414V31.7993H45.881V37.9999H44.7407V31.7993H42.8802V30.8414H47.7315Z" fill="#1ADCDF"/>
<path d="M53.7695 36.5395H50.8586L50.3585 38H49.1681L51.6589 30.8415H52.9792L55.4699 38H54.2696L53.7695 36.5395ZM53.4494 35.583L52.319 32.2608L51.1787 35.583H53.4494Z" fill="#1ADCDF"/>
<path d="M60.7376 38L58.0468 34.7967V38H56.9065V30.8415H58.0468V34.1066L60.7476 30.8415H62.178L59.1571 34.4259L62.228 38H60.7376Z" fill="#1ADCDF"/>
<path d="M64.805 31.798V33.8962H67.2056V34.8527H64.805V37.0435H67.5057V38H63.6646V30.8415H67.5057V31.798H64.805Z" fill="#1ADCDF"/>
<path d="M72.7244 30.8414V37.9999H71.5841V30.8414H72.7244Z" fill="#1ADCDF"/>
<path d="M79.0124 30.8415V31.7994H77.1618V38H76.0215V31.7994H74.161V30.8415H79.0124Z" fill="#1ADCDF"/>
</svg>
