<svg width="24" height="24" viewBox="0 0 24 24" fill="none" xmlns="http://www.w3.org/2000/svg">
<path d="M15.0012 12.6071L14.558 12.002L14.5476 12.0097L14.5374 12.0177L15.0012 12.6071ZM15.0012 11.5749L14.5227 12.1525L14.556 12.1801L14.5923 12.2037L15.0012 11.5749ZM11.3242 8.52898L11.8027 7.95141L11.7817 7.93402L11.7595 7.9182L11.3242 8.52898ZM10.5534 8.98394L11.3035 8.982L11.3032 8.97033L10.5534 8.98394ZM10.5688 14.9672L9.81879 14.9692L9.81884 14.988L9.81983 15.0069L10.5688 14.9672ZM11.3679 15.4658L11.7643 16.1025L11.7993 16.0807L11.8317 16.0552L11.3679 15.4658ZM12.0004 19.2V18.45C10.295 18.45 8.45561 18.4495 6.91255 18.3208C6.14096 18.2565 5.47001 18.162 4.94174 18.0282C4.38756 17.8878 4.10006 17.7302 3.98514 17.6153L3.45481 18.1456L2.92448 18.676C3.33676 19.0883 3.9568 19.3261 4.57344 19.4823C5.21598 19.645 5.97914 19.7482 6.78788 19.8157C8.40547 19.9506 10.3117 19.95 12.0004 19.95V19.2ZM2.40039 12H1.65039C1.65039 13.6759 1.6488 15.0082 1.78888 16.0502C1.93186 17.1137 2.23469 17.9862 2.92448 18.676L3.45481 18.1456L3.98514 17.6153C3.62051 17.2507 3.39613 16.7475 3.2755 15.8503C3.15198 14.9316 3.15039 13.7183 3.15039 12H2.40039ZM21.6004 12H20.8504C20.8504 13.7183 20.8488 14.9316 20.7253 15.8503C20.6047 16.7475 20.3803 17.2507 20.0156 17.6153L20.546 18.1456L21.0763 18.676C21.7661 17.9862 22.0689 17.1137 22.2119 16.0502C22.352 15.0082 22.3504 13.6759 22.3504 12H21.6004ZM12.0004 19.2V19.95C13.6891 19.95 15.5953 19.9506 17.2129 19.8157C18.0216 19.7482 18.7848 19.645 19.4273 19.4823C20.044 19.3261 20.664 19.0883 21.0763 18.676L20.546 18.1456L20.0156 17.6153C19.9007 17.7302 19.6132 17.8878 19.059 18.0282C18.5308 18.162 17.8598 18.2565 17.0882 18.3208C15.5452 18.4495 13.7058 18.45 12.0004 18.45V19.2ZM12.0004 4.80005V5.55005C13.7058 5.55005 15.5452 5.55056 17.0882 5.67926C17.8598 5.74361 18.5308 5.83812 19.059 5.97192C19.6132 6.11229 19.9007 6.26987 20.0156 6.38479L20.546 5.85446L21.0763 5.32413C20.664 4.91185 20.044 4.67403 19.4273 4.51784C18.7848 4.35509 18.0216 4.2519 17.2129 4.18445C15.5953 4.04954 13.6891 4.05005 12.0004 4.05005V4.80005ZM21.6004 12H22.3504C22.3504 10.3242 22.352 8.99186 22.2119 7.94993C22.0689 6.88644 21.7661 6.01392 21.0763 5.32413L20.546 5.85446L20.0156 6.38479C20.3803 6.74943 20.6047 7.25264 20.7253 8.14981C20.8488 9.06854 20.8504 10.2818 20.8504 12H21.6004ZM12.0004 4.80005V4.05005C10.3117 4.05005 8.40547 4.04954 6.78788 4.18445C5.97914 4.2519 5.21598 4.35509 4.57344 4.51784C3.9568 4.67403 3.33676 4.91185 2.92448 5.32413L3.45481 5.85446L3.98514 6.38479C4.10006 6.26987 4.38756 6.11229 4.94174 5.97192C5.47001 5.83812 6.14096 5.74361 6.91255 5.67926C8.45561 5.55056 10.295 5.55005 12.0004 5.55005V4.80005ZM2.40039 12H3.15039C3.15039 10.2818 3.15198 9.06854 3.2755 8.14981C3.39613 7.25264 3.62051 6.74943 3.98514 6.38479L3.45481 5.85446L2.92448 5.32413C2.23469 6.01392 1.93186 6.88644 1.78888 7.94993C1.6488 8.99186 1.65039 10.3242 1.65039 12H2.40039ZM15.0012 12.6071L15.4443 13.2122C15.7588 12.9818 16.1038 12.6042 16.1032 12.0752C16.1025 11.5314 15.7399 11.1606 15.41 10.9462L15.0012 11.5749L14.5923 12.2037C14.6533 12.2433 14.6611 12.2616 14.6498 12.2454C14.6344 12.2233 14.6033 12.1638 14.6032 12.077C14.6031 11.9924 14.6326 11.9407 14.6389 11.9311C14.6425 11.9256 14.6255 11.9526 14.558 12.002L15.0012 12.6071ZM15.0012 11.5749L15.4796 10.9974L11.8027 7.95141L11.3242 8.52898L10.8458 9.10655L14.5227 12.1525L15.0012 11.5749ZM11.3242 8.52898L11.7595 7.9182C11.4293 7.68288 10.9254 7.5249 10.4432 7.77819C9.95077 8.03687 9.7955 8.55701 9.80349 8.99754L10.5534 8.98394L11.3032 8.97033C11.3022 8.91405 11.3127 8.91594 11.2961 8.95164C11.277 8.99263 11.2297 9.05942 11.1408 9.10613C10.9513 9.20566 10.838 9.10347 10.889 9.13976L11.3242 8.52898ZM10.5534 8.98394L9.80337 8.98587L9.81879 14.9692L10.5688 14.9672L11.3188 14.9653L11.3034 8.982L10.5534 8.98394ZM10.5688 14.9672L9.81983 15.0069C9.83935 15.3758 9.94891 15.9117 10.4231 16.1966C10.9324 16.5026 11.4601 16.2919 11.7643 16.1025L11.3679 15.4658L10.9715 14.8291C10.9119 14.8663 10.9028 14.859 10.9394 14.8533C10.9868 14.8459 11.0883 14.8464 11.1956 14.9109C11.2971 14.9718 11.3316 15.0468 11.3354 15.0559C11.3377 15.0614 11.323 15.0264 11.3177 14.9276L10.5688 14.9672ZM11.3679 15.4658L11.8317 16.0552L15.4649 13.1965L15.0012 12.6071L14.5374 12.0177L10.9041 14.8764L11.3679 15.4658Z" fill="white"/>
</svg>
