<svg width="16" height="16" viewBox="0 0 16 16" fill="none" xmlns="http://www.w3.org/2000/svg">
<g id="Icon">
<path id="Ellipse 7 (Stroke)" fill-rule="evenodd" clip-rule="evenodd" d="M8 13.6C11.0928 13.6 13.6 11.0928 13.6 8C13.6 4.90721 11.0928 2.4 8 2.4C4.90721 2.4 2.4 4.90721 2.4 8C2.4 11.0928 4.90721 13.6 8 13.6ZM8 15C11.866 15 15 11.866 15 8C15 4.13401 11.866 1 8 1C4.13401 1 1 4.13401 1 8C1 11.866 4.13401 15 8 15Z" fill="#737373"/>
<path id="Vector 74 (Stroke)" fill-rule="evenodd" clip-rule="evenodd" d="M8.00078 4.5C8.38738 4.5 8.70078 4.8134 8.70078 5.2V7.71005L10.0708 9.08002C10.3441 9.35339 10.3441 9.79661 10.0708 10.07C9.79739 10.3433 9.35417 10.3433 9.08081 10.07L7.50581 8.49497C7.37453 8.3637 7.30078 8.18565 7.30078 8V5.2C7.30078 4.8134 7.61418 4.5 8.00078 4.5Z" fill="#737373"/>
</g>
</svg>
