<svg width="17" height="16" viewBox="0 0 17 16" fill="none" xmlns="http://www.w3.org/2000/svg">
<path fill-rule="evenodd" clip-rule="evenodd" d="M10.1694 1.42414C10.4874 1.60966 10.5949 2.01788 10.4093 2.33591L6.32752 9.33333H9.16683C9.53502 9.33333 9.8335 9.63181 9.8335 10C9.8335 10.3682 9.53502 10.6667 9.16683 10.6667H2.50016C2.13197 10.6667 1.8335 10.3682 1.8335 10C1.8335 9.63181 2.13197 9.33333 2.50016 9.33333H4.78392L7.47079 4.72726L5.94045 2.36216C5.74043 2.05304 5.82888 1.6403 6.138 1.44028C6.44712 1.24026 6.85986 1.32871 7.05988 1.63783L8.22372 3.43652L9.25764 1.66408C9.44316 1.34605 9.85137 1.23862 10.1694 1.42414ZM9.15759 6.10695C9.46671 5.90693 9.87946 5.99537 10.0795 6.30449L12.0393 9.33333H14.5002C14.8684 9.33333 15.1668 9.63181 15.1668 10C15.1668 10.3682 14.8684 10.6667 14.5002 10.6667H12.9021L14.3932 12.9712C14.5932 13.2803 14.5048 13.693 14.1957 13.893C13.8865 14.0931 13.4738 14.0046 13.2738 13.6955L8.96005 7.02883C8.76003 6.71971 8.84847 6.30697 9.15759 6.10695ZM4.17649 11.6505C4.49221 11.84 4.59459 12.2495 4.40516 12.5652L3.73849 13.6763C3.54907 13.992 3.13956 14.0944 2.82384 13.905C2.50812 13.7156 2.40574 13.3061 2.59516 12.9903L3.26183 11.8792C3.45126 11.5635 3.86077 11.4611 4.17649 11.6505Z" fill="#999999"/>
</svg>
