<svg width="21" height="20" viewBox="0 0 21 20" fill="none" xmlns="http://www.w3.org/2000/svg">
<path fill-rule="evenodd" clip-rule="evenodd" d="M12.5864 1.78019C12.9839 2.01209 13.1182 2.52235 12.8863 2.9199L7.78403 11.6667H11.3332C11.7934 11.6667 12.1665 12.0398 12.1665 12.5C12.1665 12.9602 11.7934 13.3333 11.3332 13.3333H2.99984C2.5396 13.3333 2.1665 12.9602 2.1665 12.5C2.1665 12.0398 2.5396 11.6667 2.99984 11.6667H5.85453L9.21312 5.90909L7.30019 2.95271C7.05017 2.56631 7.16073 2.05038 7.54713 1.80036C7.93354 1.55034 8.44946 1.6609 8.69948 2.0473L10.1543 4.29566L11.4467 2.08011C11.6786 1.68257 12.1889 1.54829 12.5864 1.78019ZM11.3216 7.6337C11.708 7.38367 12.224 7.49423 12.474 7.88063L14.9238 11.6667H17.9998C18.4601 11.6667 18.8332 12.0398 18.8332 12.5C18.8332 12.9602 18.4601 13.3333 17.9998 13.3333H16.0022L17.8661 16.214C18.1162 16.6004 18.0056 17.1163 17.6192 17.3663C17.2328 17.6163 16.7169 17.5058 16.4669 17.1194L11.0747 8.78605C10.8247 8.39965 10.9352 7.88372 11.3216 7.6337ZM5.09524 14.5632C5.4899 14.8 5.61787 15.3118 5.38109 15.7065L4.54775 17.0954C4.31097 17.4901 3.79908 17.618 3.40443 17.3813C3.00978 17.1445 2.8818 16.6326 3.11859 16.2379L3.95192 14.849C4.18871 14.4544 4.70059 14.3264 5.09524 14.5632Z" fill="#999999"/>
</svg>
