<svg width="16" height="16" viewBox="0 0 16 16" fill="none" xmlns="http://www.w3.org/2000/svg">
<path d="M3.89786 1.50001C3.85978 1.49601 3.82571 1.51404 3.78563 1.51605C3.75156 1.51805 3.7235 1.51004 3.68943 1.51605C3.68342 1.51605 3.67941 1.51605 3.6734 1.51605C3.65736 1.51605 3.64133 1.51605 3.6253 1.51605C3.56918 1.52807 3.51507 1.55012 3.46497 1.58018C3.41085 1.60824 3.36075 1.64632 3.32067 1.69241C3.12025 1.86076 3 2.1213 3 2.36581V14.0541C3 14.3066 3.11223 14.6112 3.3848 14.7595C3.40484 14.7696 3.42889 14.7676 3.44893 14.7756C3.46497 14.7816 3.481 14.7876 3.49703 14.7916C3.74154 14.8738 3.99607 14.8257 4.18646 14.7114C4.19248 14.7114 4.19648 14.7114 4.2025 14.7114C4.42295 14.5772 9.02851 11.7613 9.02851 11.7613L11.4816 10.2863C11.4816 10.2863 13.5619 9.02764 13.8385 8.85929C14.073 8.717 14.2914 8.44643 14.2874 8.12176C14.2834 7.79709 14.059 7.55659 13.8385 7.43233C13.7684 7.39225 13.1511 7.02148 12.5879 6.67876C12.0488 6.35008 11.5758 6.06549 11.5297 6.03743C11.5137 6.02541 11.4976 6.01539 11.4816 6.00537L9.02851 4.51427C9.02851 4.51427 4.56525 1.80665 4.2987 1.64431C4.18045 1.57417 4.04016 1.51605 3.89786 1.50001ZM4.02613 3.08731L8.86818 8.13779L4.02613 13.1883V3.08731ZM6.49526 4.17757C7.40114 4.72671 8.49942 5.3961 8.49942 5.3961L10.3913 6.5505L9.57365 7.40026L6.49526 4.17757ZM11.2892 7.09563C11.4856 7.21588 11.666 7.3221 12.0588 7.5606C12.4877 7.82114 12.7863 7.98748 13.0368 8.13779C12.5659 8.42238 11.672 8.97353 11.3052 9.19599L10.2951 8.13779L11.2892 7.09563ZM9.57365 8.89136L10.3913 9.74112L8.49942 10.8955C8.49942 10.8955 7.37508 11.5709 6.47922 12.114L9.57365 8.89136Z" fill="black"/>
</svg>
