<svg width="16" height="16" viewBox="0 0 16 16" fill="none" xmlns="http://www.w3.org/2000/svg">
<path d="M4 12.2002C4.35888 12.2002 4.68485 12.3366 4.93262 12.5586C4.72363 12.8525 4.59969 13.2115 4.59961 13.5996C4.59961 13.9876 4.72378 14.3467 4.93262 14.6406C4.68481 14.8629 4.35907 15 4 15C3.64067 15 3.31428 14.8632 3.06641 14.6406C3.27544 14.3466 3.40039 13.9878 3.40039 13.5996C3.40031 13.2113 3.2756 12.8526 3.06641 12.5586C3.31424 12.3363 3.64086 12.2002 4 12.2002ZM12 6.59961C12.3587 6.59961 12.6849 6.73613 12.9326 6.95801C12.7234 7.25212 12.5996 7.61157 12.5996 8C12.5996 8.38815 12.7237 8.74702 12.9326 9.04102C12.6848 9.26315 12.359 9.40039 12 9.40039C11.86 9.40039 11.7252 9.37809 11.5977 9.33984C11.9661 9.01024 12.2002 8.53329 12.2002 8C12.2002 7.46647 11.9664 6.9888 11.5977 6.65918C11.7251 6.62098 11.8601 6.59961 12 6.59961ZM7.19922 3.22168C7.30062 3.41884 7.43785 3.59375 7.60156 3.74023C7.47431 3.77831 7.33982 3.79979 7.2002 3.7998C7.0603 3.7998 6.92532 3.77843 6.79785 3.74023C6.96153 3.59385 7.09778 3.41871 7.19922 3.22168ZM7.2002 1C7.33971 1.00002 7.47441 1.02058 7.60156 1.05859C7.43785 1.20496 7.3007 1.38013 7.19922 1.57715C7.09771 1.38026 6.96153 1.20486 6.79785 1.05859C6.92522 1.02046 7.06042 1 7.2002 1Z" stroke="#D4D4D4" stroke-width="2"/>
</svg>
